<svg xmlns="http://www.w3.org/2000/svg" viewBox="0 0 766.72 611.05"><title>logoexportAsset 8DalcoLogoMachine</title><g id="Layer_2" data-name="Layer 2"><g id="Layer_1-2" data-name="Layer 1"><path d="M753.23,502.39c-53.67-53.68,34-180.7-80.36-262.74-38.26-27.43-31.23-9.32-126.3,77.5-12.59,10.55-4.47-49.57-6.48-110.54.39-80.24-.16-51.5.23-57.79,3.2-54.58,85,15.67,85.15,15.67,35.18,35.11,55.77,60.44,119.37-24.25,25-25.68-18.23-66.63-57.3-106.64-43.35-44.37-37-40-133.63,57.55-15.06,15.14-17.6-19.15-77.22-73.29-26-23.59-32.5-10.93-80.85,39.61-21.54,18.86-40.31,26-15.12,56.16,9.28,13.44,16.81,25.58,20.13,45.4,4.31,25.74-1.57,245.28.72,324.57-7,39.71-44,5.76-47.26-21-4.65-31-1.73-135-1.36-359,.06-34-17.35-50-63.72-92.13C260-15.11,255.41,4.3,188,72c-20.84,20.92,17.34,32.36,25.42,80.63,7.46,44.48,1.38,329.51,1.38,329.61-6.59,48.9-37.85,23.65-43.85-32.88-2.31-46.09-.13-138.59.21-339.37.06-34-17.35-50-63.72-92.13C78.14-8.71,73.59,10.7,6.15,78.4-14.69,99.32,23.49,110.76,31.57,159c5,30.1,3.46,236.29,3.31,266.58-.31,60.65-10.3,99.45,18.08,129.9,69,74,67,61.88,98.41,33.33C182,563.06,223.71,540.54,252.71,568c35.72,36.84,47,41.81,60,32.68C310.27,604.42,385,536.07,426,562.49c8.84,7.08,32.68,31.32,32.61,31.22,17.23,16.44,29.89,24.61,47.3,8.57,72.28-66.6,80.87-74.42,50.89-100.3-38.15-65.18-8.29-186,25.29-149.61,1.86,0,13.8,27.46,14.6,65.11-1.31,71.23-6.07,116.88,41,162.51,31.58,30.6,44.9,40.43,67.26,18.5C763.35,541.28,782.38,531.54,753.23,502.39Z"/></g></g></svg>